<?xml version="1.0" standalone="no"?>
<!DOCTYPE svg PUBLIC "-//W3C//DTD SVG 20010904//EN"
 "http://www.w3.org/TR/2001/REC-SVG-20010904/DTD/svg10.dtd">
<svg version="1.0" xmlns="http://www.w3.org/2000/svg"
 width="300.000000pt" height="300.000000pt" viewBox="0 0 300.000000 300.000000"
 preserveAspectRatio="xMidYMid meet">
<metadata>
Created by potrace 1.14, written by Peter Selinger 2001-2017
</metadata>
<g transform="translate(0.000000,300.000000) scale(0.100000,-0.100000)"
fill="#000000" stroke="none">
<path d="M1333 2958 c-88 -123 -161 -288 -170 -383 -11 -110 -4 -331 12 -417
6 -30 15 -89 18 -112 2 -15 -13 -25 -68 -47 -38 -15 -173 -69 -300 -119 -126
-50 -258 -104 -293 -120 -89 -42 -203 -121 -247 -172 -47 -53 -100 -166 -120
-253 -21 -87 -45 -158 -89 -259 -62 -141 -76 -199 -72 -285 5 -83 45 -144 118
-182 43 -22 180 -45 255 -44 l52 1 -21 -39 c-48 -96 -64 -161 -71 -305 -2 -37
1 -47 23 -62 37 -26 119 -66 165 -79 22 -7 49 -16 60 -20 100 -41 420 -67 570
-47 33 5 71 9 85 11 43 5 144 25 180 36 19 5 43 12 52 14 37 8 195 66 228 83
46 24 74 41 210 131 242 161 416 383 530 676 29 75 37 85 64 85 83 0 244 99
363 223 99 104 141 163 125 179 -8 8 -22 7 -51 -7 -48 -21 -58 -23 -230 -31
-129 -7 -134 -6 -126 12 9 23 40 188 49 264 3 30 9 73 11 95 15 118 27 325 29
497 2 153 -4 280 -18 373 -3 22 -8 60 -11 85 -3 25 -13 90 -21 144 -7 55 -14
103 -14 108 0 4 -130 8 -289 8 l-288 0 -18 -67 c-49 -189 -87 -283 -153 -379
-40 -58 -55 -76 -154 -181 l-49 -53 -24 55 c-65 147 -110 367 -110 538 l1 87
-81 0 -82 0 -30 -42z"/>
</g>
</svg>
